<mxfile host="app.diagrams.net" agent="Mozilla/5.0 (Windows NT 10.0; Win64; x64) AppleWebKit/537.36 (KHTML, like Gecko) Chrome/131.0.0.0 Safari/537.36" version="24.8.8">
  <diagram name="Page-1" id="Ov3zLVcMMMj3naR1eEt0">
    <mxGraphModel dx="1880" dy="895" grid="1" gridSize="10" guides="1" tooltips="1" connect="1" arrows="1" fold="1" page="1" pageScale="1" pageWidth="850" pageHeight="1100" math="0" shadow="0">
      <root>
        <mxCell id="0" />
        <mxCell id="1" parent="0" />
        <mxCell id="37QOUcs8MFrig1ify5am-3" value="Battery" style="rounded=1;whiteSpace=wrap;html=1;rotation=0;" vertex="1" parent="1">
          <mxGeometry x="90" y="120" width="100" height="50" as="geometry" />
        </mxCell>
        <mxCell id="37QOUcs8MFrig1ify5am-5" value="Buck&lt;div&gt;5V&lt;/div&gt;" style="rounded=1;whiteSpace=wrap;html=1;" vertex="1" parent="1">
          <mxGeometry x="250" y="120" width="76" height="50" as="geometry" />
        </mxCell>
        <mxCell id="37QOUcs8MFrig1ify5am-6" value="LED" style="rounded=1;whiteSpace=wrap;html=1;" vertex="1" parent="1">
          <mxGeometry x="414" y="125.5" width="59" height="39" as="geometry" />
        </mxCell>
        <mxCell id="37QOUcs8MFrig1ify5am-9" value="RECEIVER" style="rounded=1;whiteSpace=wrap;html=1;" vertex="1" parent="1">
          <mxGeometry x="374.25" y="190" width="133.75" height="70" as="geometry" />
        </mxCell>
        <mxCell id="37QOUcs8MFrig1ify5am-10" value="FUEL PRESSURE" style="rounded=1;whiteSpace=wrap;html=1;" vertex="1" parent="1">
          <mxGeometry x="395" y="430" width="95" height="40" as="geometry" />
        </mxCell>
        <mxCell id="37QOUcs8MFrig1ify5am-11" value="FUEL FLOW SENSOR" style="rounded=1;whiteSpace=wrap;html=1;" vertex="1" parent="1">
          <mxGeometry x="390.25" y="360" width="105.5" height="40" as="geometry" />
        </mxCell>
        <mxCell id="37QOUcs8MFrig1ify5am-12" value="RELAY" style="rounded=1;whiteSpace=wrap;html=1;" vertex="1" parent="1">
          <mxGeometry x="400.25" y="290" width="85.5" height="40" as="geometry" />
        </mxCell>
        <mxCell id="37QOUcs8MFrig1ify5am-13" value="RECEIVER" style="rounded=1;whiteSpace=wrap;html=1;" vertex="1" parent="1">
          <mxGeometry x="374" y="500" width="137.5" height="70" as="geometry" />
        </mxCell>
        <mxCell id="37QOUcs8MFrig1ify5am-16" value="STM32" style="rounded=1;whiteSpace=wrap;html=1;" vertex="1" parent="1">
          <mxGeometry x="408" y="630" width="71" height="64" as="geometry" />
        </mxCell>
        <mxCell id="37QOUcs8MFrig1ify5am-17" value="SERVO" style="rounded=1;whiteSpace=wrap;html=1;" vertex="1" parent="1">
          <mxGeometry x="402.75" y="820" width="80.5" height="50" as="geometry" />
        </mxCell>
        <mxCell id="37QOUcs8MFrig1ify5am-19" value="LORA" style="rounded=1;whiteSpace=wrap;html=1;" vertex="1" parent="1">
          <mxGeometry x="414.88" y="729" width="57.25" height="51" as="geometry" />
        </mxCell>
        <mxCell id="37QOUcs8MFrig1ify5am-23" value="Buck&lt;div&gt;5V&lt;/div&gt;" style="rounded=1;whiteSpace=wrap;html=1;" vertex="1" parent="1">
          <mxGeometry x="230" y="630" width="76" height="50" as="geometry" />
        </mxCell>
      </root>
    </mxGraphModel>
  </diagram>
</mxfile>
